<svg xmlns="http://www.w3.org/2000/svg" viewBox="0 0 1200 630" width="1200" height="630">
  <defs>
    <linearGradient id="bg" x1="0%" y1="0%" x2="100%" y2="100%">
      <stop offset="0%" stop-color="#07070d"/>
      <stop offset="100%" stop-color="#0e0e1c"/>
    </linearGradient>
    <radialGradient id="halo" cx="78%" cy="40%" r="55%">
      <stop offset="0%" stop-color="rgba(241,241,247,0.2)"/>
      <stop offset="100%" stop-color="rgba(7,7,13,0)"/>
    </radialGradient>
  </defs>
  <rect width="1200" height="630" fill="url(#bg)"/>
  <rect width="1200" height="630" fill="url(#halo)"/>

  <!-- monospace eyebrow -->
  <text x="92" y="142" font-family="JetBrains Mono, ui-monospace, monospace"
        font-size="22" letter-spacing="4.6" fill="#f1f1f7">∞ · CODA</text>

  <!-- big serif title -->
  <text x="92" y="290" font-family="Cormorant Garamond, Georgia, serif"
        font-weight="300" font-size="160" fill="#e6e1d9" letter-spacing="-3">
    <tspan x="92" y="220">After the</tspan>
    <tspan x="92" y="380">last word.</tspan>
  </text>

  <!-- footer brand -->
  <g transform="translate(92,560)">
    <text font-family="Cormorant Garamond, Georgia, serif" font-weight="500"
          font-size="32" fill="#e6e1d9" letter-spacing="1.5">EM<tspan fill="#f1f1f7">ERG</tspan>ENCE</text>
    <text x="220" y="-1" font-family="JetBrains Mono, ui-monospace, monospace"
          font-size="15" letter-spacing="3" fill="rgba(230,225,217,0.45)">AN INTERACTIVE JOURNAL ON COMPLEXITY</text>
  </g>

  <!-- accent line -->
  <line x1="92" y1="180" x2="190" y2="180" stroke="#f1f1f7" stroke-width="2" opacity="0.85"/>

  <!-- chapter glyph -->
  <circle cx="990" cy="315" r="220" fill="none" stroke="rgba(241,241,247,0.06)"/>
<circle cx="990" cy="315" r="140" fill="none" stroke="rgba(241,241,247,0.1)"/>
<circle cx="990" cy="315" r="70" fill="none" stroke="rgba(241,241,247,0.2)"/>
<circle cx="990" cy="315" r="22" fill="rgba(241,241,247,0.35)"/>
<circle cx="990" cy="315" r="6" fill="#f1f1f7"/>
<circle cx="945" cy="341" r="0.9" fill="rgba(220,225,240,0.35)"/>
<circle cx="1096" cy="300" r="0.9" fill="rgba(220,225,240,0.35)"/>
<circle cx="963" cy="353" r="0.9" fill="rgba(220,225,240,0.35)"/>
<circle cx="859" cy="320" r="0.9" fill="rgba(220,225,240,0.35)"/>
<circle cx="1002" cy="441" r="0.9" fill="rgba(220,225,240,0.35)"/>
<circle cx="830" cy="230" r="0.9" fill="rgba(220,225,240,0.35)"/>
<circle cx="829" cy="448" r="0.9" fill="rgba(220,225,240,0.35)"/>
<circle cx="1022" cy="118" r="0.9" fill="rgba(220,225,240,0.35)"/>
<circle cx="1114" cy="515" r="0.9" fill="rgba(220,225,240,0.35)"/>
<circle cx="1009" cy="365" r="0.9" fill="rgba(220,225,240,0.35)"/>
<circle cx="850" cy="106" r="0.9" fill="rgba(220,225,240,0.35)"/>
<circle cx="969" cy="126" r="0.9" fill="rgba(220,225,240,0.35)"/>
<circle cx="861" cy="204" r="0.9" fill="rgba(220,225,240,0.35)"/>
<circle cx="810" cy="299" r="0.9" fill="rgba(220,225,240,0.35)"/>
<circle cx="941" cy="462" r="0.9" fill="rgba(220,225,240,0.35)"/>
<circle cx="966" cy="375" r="0.9" fill="rgba(220,225,240,0.35)"/>
<circle cx="960" cy="385" r="0.9" fill="rgba(220,225,240,0.35)"/>
<circle cx="946" cy="220" r="0.9" fill="rgba(220,225,240,0.35)"/>
<circle cx="1119" cy="528" r="0.9" fill="rgba(220,225,240,0.35)"/>
<circle cx="1069" cy="404" r="0.9" fill="rgba(220,225,240,0.35)"/>
<circle cx="901" cy="199" r="0.9" fill="rgba(220,225,240,0.35)"/>
<circle cx="892" cy="130" r="0.9" fill="rgba(220,225,240,0.35)"/>
<circle cx="1045" cy="272" r="0.9" fill="rgba(220,225,240,0.35)"/>
<circle cx="1071" cy="266" r="0.9" fill="rgba(220,225,240,0.35)"/>
<circle cx="1107" cy="464" r="0.9" fill="rgba(220,225,240,0.35)"/>
<circle cx="800" cy="190" r="0.9" fill="rgba(220,225,240,0.35)"/>
<circle cx="1091" cy="302" r="0.9" fill="rgba(220,225,240,0.35)"/>
<circle cx="1114" cy="271" r="0.9" fill="rgba(220,225,240,0.35)"/>
<circle cx="823" cy="371" r="0.9" fill="rgba(220,225,240,0.35)"/>
<circle cx="1049" cy="216" r="0.9" fill="rgba(220,225,240,0.35)"/>
<circle cx="828" cy="243" r="0.9" fill="rgba(220,225,240,0.35)"/>
<circle cx="1109" cy="426" r="0.9" fill="rgba(220,225,240,0.35)"/>
<circle cx="838" cy="206" r="0.9" fill="rgba(220,225,240,0.35)"/>
<circle cx="832" cy="126" r="0.9" fill="rgba(220,225,240,0.35)"/>
<circle cx="1055" cy="176" r="0.9" fill="rgba(220,225,240,0.35)"/>
<circle cx="979" cy="292" r="0.9" fill="rgba(220,225,240,0.35)"/>
<circle cx="861" cy="415" r="0.9" fill="rgba(220,225,240,0.35)"/>
<circle cx="842" cy="377" r="0.9" fill="rgba(220,225,240,0.35)"/>
<circle cx="837" cy="281" r="0.9" fill="rgba(220,225,240,0.35)"/>
<circle cx="868" cy="216" r="0.9" fill="rgba(220,225,240,0.35)"/>
</svg>
