<svg xmlns="http://www.w3.org/2000/svg" viewBox="0 0 1200 630" width="1200" height="630">
  <defs>
    <linearGradient id="bg" x1="0%" y1="0%" x2="100%" y2="100%">
      <stop offset="0%" stop-color="#07070d"/>
      <stop offset="100%" stop-color="#0e0e1c"/>
    </linearGradient>
    <radialGradient id="halo" cx="78%" cy="40%" r="55%">
      <stop offset="0%" stop-color="rgba(34,211,238,0.2)"/>
      <stop offset="100%" stop-color="rgba(7,7,13,0)"/>
    </radialGradient>
  </defs>
  <rect width="1200" height="630" fill="url(#bg)"/>
  <rect width="1200" height="630" fill="url(#halo)"/>

  <!-- monospace eyebrow -->
  <text x="92" y="142" font-family="JetBrains Mono, ui-monospace, monospace"
        font-size="22" letter-spacing="4.6" fill="#22d3ee">CHAPTER 05 · GRAVITY & STRUCTURE</text>

  <!-- big serif title -->
  <text x="92" y="290" font-family="Cormorant Garamond, Georgia, serif"
        font-weight="300" font-size="160" fill="#e6e1d9" letter-spacing="-3">
    <tspan x="92" y="290">Cosmos</tspan>
  </text>

  <!-- footer brand -->
  <g transform="translate(92,560)">
    <text font-family="Cormorant Garamond, Georgia, serif" font-weight="500"
          font-size="32" fill="#e6e1d9" letter-spacing="1.5">EM<tspan fill="#22d3ee">ERG</tspan>ENCE</text>
    <text x="220" y="-1" font-family="JetBrains Mono, ui-monospace, monospace"
          font-size="15" letter-spacing="3" fill="rgba(230,225,217,0.45)">AN INTERACTIVE JOURNAL ON COMPLEXITY</text>
  </g>

  <!-- accent line -->
  <line x1="92" y1="180" x2="190" y2="180" stroke="#22d3ee" stroke-width="2" opacity="0.85"/>

  <!-- chapter glyph -->
  <circle cx="876" cy="334" r="1.19" fill="rgba(220,225,240,0.63)"/>
<circle cx="1000" cy="128" r="0.62" fill="rgba(220,225,240,0.76)"/>
<circle cx="883" cy="201" r="2.19" fill="rgba(220,225,240,0.56)"/>
<circle cx="1068" cy="305" r="1.62" fill="rgba(220,225,240,0.38)"/>
<circle cx="1003" cy="473" r="1.44" fill="rgba(220,225,240,0.71)"/>
<circle cx="1015" cy="128" r="1.81" fill="rgba(220,225,240,0.63)"/>
<circle cx="896" cy="113" r="1.98" fill="rgba(220,225,240,0.56)"/>
<circle cx="1030" cy="478" r="1.74" fill="rgba(220,225,240,0.81)"/>
<circle cx="926" cy="444" r="1.31" fill="rgba(220,225,240,0.81)"/>
<circle cx="1081" cy="142" r="0.82" fill="rgba(220,225,240,0.42)"/>
<circle cx="1109" cy="288" r="1.60" fill="rgba(220,225,240,0.47)"/>
<circle cx="962" cy="266" r="1.16" fill="rgba(220,225,240,0.62)"/>
<circle cx="987" cy="489" r="1.69" fill="rgba(220,225,240,0.81)"/>
<circle cx="1074" cy="526" r="1.67" fill="rgba(220,225,240,0.39)"/>
<circle cx="1075" cy="515" r="2.05" fill="rgba(220,225,240,0.61)"/>
<circle cx="1028" cy="191" r="1.93" fill="rgba(220,225,240,0.62)"/>
<circle cx="891" cy="127" r="1.97" fill="rgba(220,225,240,0.84)"/>
<circle cx="828" cy="444" r="1.26" fill="rgba(220,225,240,0.38)"/>
<circle cx="894" cy="431" r="2.00" fill="rgba(220,225,240,0.32)"/>
<circle cx="997" cy="119" r="1.75" fill="rgba(220,225,240,0.48)"/>
<circle cx="1082" cy="522" r="1.41" fill="rgba(220,225,240,0.85)"/>
<circle cx="899" cy="133" r="1.56" fill="rgba(220,225,240,0.32)"/>
<circle cx="863" cy="275" r="1.58" fill="rgba(220,225,240,0.39)"/>
<circle cx="814" cy="473" r="1.10" fill="rgba(220,225,240,0.83)"/>
<circle cx="1087" cy="262" r="1.34" fill="rgba(220,225,240,0.59)"/>
<circle cx="1006" cy="356" r="1.49" fill="rgba(220,225,240,0.64)"/>
<circle cx="1101" cy="318" r="1.29" fill="rgba(220,225,240,0.70)"/>
<circle cx="876" cy="229" r="2.16" fill="rgba(220,225,240,0.59)"/>
<circle cx="975" cy="105" r="1.26" fill="rgba(220,225,240,0.62)"/>
<circle cx="806" cy="365" r="1.61" fill="rgba(220,225,240,0.33)"/>
<circle cx="1001" cy="300" r="1.69" fill="rgba(220,225,240,0.49)"/>
<circle cx="1026" cy="417" r="0.64" fill="rgba(220,225,240,0.33)"/>
<circle cx="1016" cy="514" r="1.00" fill="rgba(220,225,240,0.55)"/>
<circle cx="990" cy="238" r="1.18" fill="rgba(220,225,240,0.47)"/>
<circle cx="918" cy="356" r="1.08" fill="rgba(220,225,240,0.51)"/>
<circle cx="1047" cy="112" r="1.51" fill="rgba(220,225,240,0.70)"/>
<circle cx="899" cy="196" r="1.89" fill="rgba(220,225,240,0.43)"/>
<circle cx="860" cy="287" r="1.72" fill="rgba(220,225,240,0.36)"/>
<circle cx="903" cy="244" r="1.93" fill="rgba(220,225,240,0.54)"/>
<circle cx="1074" cy="173" r="1.14" fill="rgba(220,225,240,0.66)"/>
<circle cx="1083" cy="294" r="0.96" fill="rgba(220,225,240,0.37)"/>
<circle cx="969" cy="182" r="1.89" fill="rgba(220,225,240,0.76)"/>
<circle cx="859" cy="220" r="1.89" fill="rgba(220,225,240,0.65)"/>
<circle cx="1058" cy="248" r="0.81" fill="rgba(220,225,240,0.46)"/>
<circle cx="1054" cy="217" r="1.15" fill="rgba(220,225,240,0.53)"/>
<circle cx="934" cy="276" r="2.07" fill="rgba(220,225,240,0.39)"/>
<circle cx="801" cy="506" r="2.01" fill="rgba(220,225,240,0.84)"/>
<circle cx="939" cy="509" r="2.08" fill="rgba(220,225,240,0.42)"/>
<circle cx="1039" cy="460" r="1.66" fill="rgba(220,225,240,0.59)"/>
<circle cx="892" cy="247" r="0.96" fill="rgba(220,225,240,0.34)"/>
<circle cx="988" cy="223" r="1.90" fill="rgba(220,225,240,0.32)"/>
<circle cx="1089" cy="398" r="2.08" fill="rgba(220,225,240,0.79)"/>
<circle cx="1088" cy="348" r="0.62" fill="rgba(220,225,240,0.71)"/>
<circle cx="855" cy="229" r="1.66" fill="rgba(220,225,240,0.59)"/>
<circle cx="932" cy="504" r="1.58" fill="rgba(220,225,240,0.49)"/>
<circle cx="881" cy="471" r="1.36" fill="rgba(220,225,240,0.73)"/>
<circle cx="913" cy="185" r="1.46" fill="rgba(220,225,240,0.75)"/>
<circle cx="855" cy="440" r="2.07" fill="rgba(220,225,240,0.74)"/>
<circle cx="1064" cy="103" r="1.61" fill="rgba(220,225,240,0.77)"/>
<circle cx="816" cy="217" r="1.03" fill="rgba(220,225,240,0.59)"/>
<circle cx="990" cy="315" r="9" fill="#fff5cc"/>
<circle cx="990" cy="315" r="40" fill="none" stroke="rgba(34,211,238,0.6)" stroke-width="1.4"/>
<circle cx="990" cy="315" r="80" fill="none" stroke="rgba(34,211,238,0.28)" stroke-width="1.2"/>
<circle cx="1030" cy="315" r="3" fill="#22d3ee"/>
<circle cx="930" cy="365" r="2.4" fill="#22d3ee"/>
</svg>
