<svg xmlns="http://www.w3.org/2000/svg" viewBox="0 0 1200 630" width="1200" height="630">
  <defs>
    <linearGradient id="bg" x1="0%" y1="0%" x2="100%" y2="100%">
      <stop offset="0%" stop-color="#07070d"/>
      <stop offset="100%" stop-color="#0e0e1c"/>
    </linearGradient>
    <radialGradient id="halo" cx="78%" cy="40%" r="55%">
      <stop offset="0%" stop-color="rgba(110,181,255,0.2)"/>
      <stop offset="100%" stop-color="rgba(7,7,13,0)"/>
    </radialGradient>
  </defs>
  <rect width="1200" height="630" fill="url(#bg)"/>
  <rect width="1200" height="630" fill="url(#halo)"/>

  <!-- monospace eyebrow -->
  <text x="92" y="142" font-family="JetBrains Mono, ui-monospace, monospace"
        font-size="22" letter-spacing="4.6" fill="#6eb5ff">SIX CHAPTERS · AN INTERACTIVE JOURNAL</text>

  <!-- big serif title -->
  <text x="92" y="290" font-family="Cormorant Garamond, Georgia, serif"
        font-weight="300" font-size="160" fill="#e6e1d9" letter-spacing="-3">
    <tspan x="92" y="220">More</tspan>
    <tspan x="92" y="380">is different.</tspan>
  </text>

  <!-- footer brand -->
  <g transform="translate(92,560)">
    <text font-family="Cormorant Garamond, Georgia, serif" font-weight="500"
          font-size="32" fill="#e6e1d9" letter-spacing="1.5">EM<tspan fill="#6eb5ff">ERG</tspan>ENCE</text>
    <text x="220" y="-1" font-family="JetBrains Mono, ui-monospace, monospace"
          font-size="15" letter-spacing="3" fill="rgba(230,225,217,0.45)">AN INTERACTIVE JOURNAL ON COMPLEXITY</text>
  </g>

  <!-- accent line -->
  <line x1="92" y1="180" x2="190" y2="180" stroke="#6eb5ff" stroke-width="2" opacity="0.85"/>

  <!-- chapter glyph -->
  <g transform="translate(1051.2,283.6) rotate(148.5)" fill="rgba(110,181,255,0.55)" stroke="rgba(110,181,255,0.85)" stroke-width="1"><path d="M14 0 L-8 -5 L-5 0 L-8 5 Z"/></g>
<g transform="translate(1070.6,281.8) rotate(154.8)" fill="rgba(110,181,255,0.55)" stroke="rgba(110,181,255,0.85)" stroke-width="1"><path d="M14 0 L-8 -5 L-5 0 L-8 5 Z"/></g>
<g transform="translate(1090.8,283.9) rotate(161.1)" fill="rgba(110,181,255,0.55)" stroke="rgba(110,181,255,0.85)" stroke-width="1"><path d="M14 0 L-8 -5 L-5 0 L-8 5 Z"/></g>
<g transform="translate(1058.6,301.9) rotate(167.4)" fill="rgba(110,181,255,0.55)" stroke="rgba(110,181,255,0.85)" stroke-width="1"><path d="M14 0 L-8 -5 L-5 0 L-8 5 Z"/></g>
<g transform="translate(1077.5,306.4) rotate(173.7)" fill="rgba(110,181,255,0.55)" stroke="rgba(110,181,255,0.85)" stroke-width="1"><path d="M14 0 L-8 -5 L-5 0 L-8 5 Z"/></g>
<g transform="translate(1096.0,315.0) rotate(180.0)" fill="rgba(110,181,255,0.55)" stroke="rgba(110,181,255,0.85)" stroke-width="1"><path d="M14 0 L-8 -5 L-5 0 L-8 5 Z"/></g>
<g transform="translate(1059.6,321.6) rotate(186.3)" fill="rgba(110,181,255,0.55)" stroke="rgba(110,181,255,0.85)" stroke-width="1"><path d="M14 0 L-8 -5 L-5 0 L-8 5 Z"/></g>
<g transform="translate(1076.1,332.0) rotate(192.6)" fill="rgba(110,181,255,0.55)" stroke="rgba(110,181,255,0.85)" stroke-width="1"><path d="M14 0 L-8 -5 L-5 0 L-8 5 Z"/></g>
<g transform="translate(1090.8,346.1) rotate(198.9)" fill="rgba(110,181,255,0.55)" stroke="rgba(110,181,255,0.85)" stroke-width="1"><path d="M14 0 L-8 -5 L-5 0 L-8 5 Z"/></g>
<g transform="translate(1054.3,340.6) rotate(205.2)" fill="rgba(110,181,255,0.55)" stroke="rgba(110,181,255,0.85)" stroke-width="1"><path d="M14 0 L-8 -5 L-5 0 L-8 5 Z"/></g>
<g transform="translate(1066.5,355.8) rotate(211.5)" fill="rgba(110,181,255,0.55)" stroke="rgba(110,181,255,0.85)" stroke-width="1"><path d="M14 0 L-8 -5 L-5 0 L-8 5 Z"/></g>
</svg>
